<svg width="101" height="24" viewBox="0 0 101 24" fill="none" xmlns="http://www.w3.org/2000/svg">
<mask id="mask0_59_19" style="mask-type:alpha" maskUnits="userSpaceOnUse" x="0" y="0" width="101" height="24">
<path d="M0 0H101V24H0V0Z" fill="#C4C4C4"/>
</mask>
<g mask="url(#mask0_59_19)">
<path d="M41.0004 7.32086C41.0361 7.2139 41.054 7.0713 41.054 6.89305C41.054 6.60784 40.9736 6.37611 40.8127 6.19786C40.6697 6.01961 40.4374 5.82353 40.1156 5.60962C39.8475 5.41355 39.6509 5.24421 39.5258 5.1016C39.4185 4.959 39.3917 4.78966 39.4454 4.59358C39.499 4.34403 39.633 4.17469 39.8475 4.08556C40.062 3.99644 40.4016 3.95187 40.8663 3.95187H48.4806C48.8559 3.95187 49.1419 4.01426 49.3385 4.13904C49.553 4.26381 49.6602 4.42424 49.6602 4.62032C49.6602 4.70945 49.6334 4.82531 49.5798 4.96791C49.5262 5.09269 49.4457 5.20856 49.3385 5.31551C49.2491 5.40464 49.1598 5.47594 49.0704 5.52941C48.9989 5.56506 48.9453 5.60071 48.9095 5.63636C48.6235 5.79679 48.3912 5.97504 48.2124 6.17112C48.0337 6.3672 47.8818 6.67023 47.7567 7.08021L45.1292 16.3316C44.593 18.221 43.6814 19.6292 42.3945 20.5562C41.1076 21.4652 39.4364 21.9198 37.3809 21.9198C36.0047 21.9198 34.8339 21.7237 33.8687 21.3316C32.9214 20.9216 32.2065 20.3779 31.7239 19.7005C31.2413 19.0232 31 18.2834 31 17.4813C31 17.0891 31.0536 16.7059 31.1609 16.3316C31.3932 15.5294 31.7864 14.9234 32.3405 14.5134C32.9125 14.1034 33.547 13.8984 34.2441 13.8984C35.0484 13.8984 35.6651 14.139 36.094 14.6203C36.523 15.1016 36.7375 15.7166 36.7375 16.4652C36.7375 16.8396 36.6839 17.2139 36.5766 17.5882C36.3621 18.3369 35.96 18.8895 35.3701 19.246C35.6561 19.4242 35.9868 19.5134 36.3621 19.5134C36.7375 19.5134 37.0681 19.3262 37.3541 18.9519C37.6401 18.5775 37.8814 18.0517 38.078 17.3743L41.0004 7.32086Z" fill="white"/>
<path d="M55.9691 7.48128C58.2391 7.48128 59.8835 7.8467 60.9023 8.57754C61.9211 9.29055 62.4305 10.2086 62.4305 11.3316C62.4305 11.6702 62.3947 11.9822 62.3232 12.2674C62.0551 13.4439 61.3044 14.2906 60.0711 14.8075C58.8557 15.3066 57.4169 15.5562 55.7546 15.5562C54.9145 15.5562 54.1281 15.5027 53.3953 15.3957C53.3774 16.3226 53.6276 16.9733 54.146 17.3476C54.6643 17.7219 55.3882 17.9091 56.3176 17.9091C56.7466 17.9091 57.1577 17.8645 57.5509 17.7754C57.9442 17.6685 58.4446 17.5169 59.0523 17.3209C59.5528 17.1426 59.8924 17.0535 60.0711 17.0535C60.2677 17.0535 60.366 17.1693 60.366 17.4011C60.3839 18.025 60.1516 18.6845 59.669 19.3797C59.1864 20.057 58.4714 20.6364 57.5241 21.1176C56.5768 21.5989 55.4329 21.8396 54.0924 21.8396C52.1084 21.8396 50.4819 21.3405 49.2128 20.3422C47.9438 19.344 47.3093 17.8913 47.3093 15.984C47.3093 15.4492 47.3808 14.8253 47.5237 14.1123C47.9706 11.9198 48.9447 10.2709 50.4461 9.16577C51.9654 8.04278 53.8064 7.48128 55.9691 7.48128ZM53.583 13.7914C53.6544 13.8093 53.7528 13.8182 53.8779 13.8182C54.6286 13.8182 55.2005 13.4706 55.5938 12.7754C55.987 12.0802 56.1746 11.3048 56.1568 10.4492C56.1389 9.95009 55.9959 9.70053 55.7278 9.70053C55.5312 9.70053 55.2988 9.86096 55.0307 10.1818C54.7626 10.4848 54.4945 10.9483 54.2264 11.5722C53.9762 12.1961 53.7617 12.9358 53.583 13.7914Z" fill="white"/>
<path d="M70.4353 2C71.472 2 72.2317 2.19608 72.7142 2.58824C73.2147 2.98039 73.4649 3.51515 73.4649 4.19251C73.4649 4.58467 73.4024 4.96791 73.2773 5.34225L69.068 18.9786C69.0144 19.1925 68.9876 19.3797 68.9876 19.5401C68.9876 19.7718 69.0322 19.959 69.1216 20.1016C69.211 20.2264 69.3361 20.3512 69.497 20.4759C69.6221 20.6007 69.7114 20.7077 69.7651 20.7968C69.8187 20.8681 69.8276 20.9661 69.7919 21.0909C69.7025 21.3226 69.5238 21.492 69.2557 21.5989C68.9876 21.7059 68.5765 21.7594 68.0224 21.7594H61.9095C61.4448 21.7594 61.1052 21.6881 60.8907 21.5455C60.6763 21.385 60.6048 21.18 60.6763 20.9305C60.7478 20.7166 60.9354 20.5294 61.2393 20.369C61.5074 20.2264 61.7308 20.057 61.9095 19.861C62.0883 19.6649 62.2402 19.3529 62.3653 18.9251L66.4405 5.58289C66.4942 5.42246 66.521 5.28877 66.521 5.18182C66.521 4.98574 66.4674 4.82531 66.3601 4.70053C66.2707 4.57576 66.1456 4.45098 65.9848 4.3262C65.806 4.1836 65.672 4.05882 65.5826 3.95187C65.5111 3.84492 65.5022 3.70232 65.5558 3.52406C65.663 3.11408 66.2261 2.75758 67.2449 2.45454C68.2637 2.15152 69.3272 2 70.4353 2Z" fill="white"/>
<path d="M80.2537 2C81.2904 2 82.05 2.19608 82.5326 2.58824C83.0331 2.98039 83.2833 3.51515 83.2833 4.19251C83.2833 4.58467 83.2207 4.96791 83.0956 5.34225L78.8863 18.9786C78.8327 19.1925 78.8059 19.3797 78.8059 19.5401C78.8059 19.7718 78.8506 19.959 78.94 20.1016C79.0293 20.2264 79.1545 20.3512 79.3153 20.4759C79.4404 20.6007 79.5298 20.7077 79.5834 20.7968C79.637 20.8681 79.646 20.9661 79.6102 21.0909C79.5209 21.3226 79.3421 21.492 79.074 21.5989C78.8059 21.7059 78.3948 21.7594 77.8407 21.7594H71.7279C71.2632 21.7594 70.9236 21.6881 70.7091 21.5455C70.4946 21.385 70.4231 21.18 70.4946 20.9305C70.5661 20.7166 70.7538 20.5294 71.0576 20.369C71.3257 20.2264 71.5492 20.057 71.7279 19.861C71.9066 19.6649 72.0586 19.3529 72.1837 18.9251L76.2589 5.58289C76.3125 5.42246 76.3393 5.28877 76.3393 5.18182C76.3393 4.98574 76.2857 4.82531 76.1785 4.70053C76.0891 4.57576 75.964 4.45098 75.8031 4.3262C75.6244 4.1836 75.4903 4.05882 75.401 3.95187C75.3295 3.84492 75.3205 3.70232 75.3742 3.52406C75.4814 3.11408 76.0444 2.75758 77.0632 2.45454C78.082 2.15152 79.1455 2 80.2537 2Z" fill="white"/>
<path d="M91.8952 7.61497C94.326 7.61497 96.1134 8.10517 97.2573 9.08556C98.4191 10.066 99 11.3494 99 12.9358C99 13.4706 98.9285 14.0677 98.7855 14.7273C98.4459 16.1889 97.8114 17.4724 96.882 18.5775C95.9525 19.6649 94.8086 20.5116 93.4502 21.1176C92.1097 21.7059 90.653 22 89.0801 22C86.5956 22 84.7546 21.5098 83.5571 20.5294C82.3774 19.5312 81.7876 18.2121 81.7876 16.5722C81.7876 16.0196 81.8591 15.4046 82.002 14.7273C82.3416 13.3369 82.9851 12.107 83.9324 11.0374C84.8976 9.95009 86.0683 9.1123 87.4446 8.52406C88.8388 7.918 90.3223 7.61497 91.8952 7.61497ZM91.8147 9.99465C91.4394 9.99465 91.0372 10.3333 90.6083 11.0107C90.1972 11.6702 89.7056 12.9269 89.1337 14.7807C88.5617 16.6346 88.2757 17.9358 88.2757 18.6845C88.2757 19.0766 88.3383 19.344 88.4634 19.4866C88.5885 19.6114 88.7583 19.6738 88.9728 19.6738C89.3482 19.7094 89.7324 19.3886 90.1257 18.7112C90.5368 18.0339 91.0462 16.7148 91.6539 14.754C92.208 13.025 92.485 11.7683 92.485 10.984C92.485 10.6096 92.4225 10.3512 92.2973 10.2086C92.1901 10.066 92.0292 9.99465 91.8147 9.99465Z" fill="white"/>
<path d="M0 0.75C0 0.335786 0.335786 0 0.75 0H23.25C23.6642 0 24 0.335786 24 0.75V23.25C24 23.6642 23.6642 24 23.25 24H0.75C0.335786 24 0 23.6642 0 23.25V0.75Z" fill="white"/>
<path d="M3 3H10.5V21H3V3Z" fill="#9150FB"/>
<path d="M13.5 3H21V13.5H13.5V3Z" fill="#9150FB"/>
</g>
</svg>
